<svg xmlns="http://www.w3.org/2000/svg" viewBox="0 0 512 512" width="512" height="512">
  <defs>
    <linearGradient id="bg" x1="0" y1="0" x2="512" y2="512" gradientUnits="userSpaceOnUse">
      <stop offset="0" stop-color="#818cf8"/>
      <stop offset="1" stop-color="#4338ca"/>
    </linearGradient>
    <linearGradient id="sheen" x1="0" y1="0" x2="0" y2="512" gradientUnits="userSpaceOnUse">
      <stop offset="0" stop-color="#ffffff" stop-opacity="0.16"/>
      <stop offset="0.5" stop-color="#ffffff" stop-opacity="0"/>
    </linearGradient>
  </defs>

  <rect width="512" height="512" rx="112" fill="url(#bg)"/>
  <rect width="512" height="512" rx="112" fill="url(#sheen)"/>

  <!-- Sino, desenhado com curvas suaves para não virar um borrão em 16-32px. -->
  <g transform="translate(256,268) scale(13.6) translate(-12,-12)" fill="#ffffff">
    <path d="M12 3c-3.87 0-7 3.13-7 7v4.34c0 .6-.24 1.18-.66 1.6L3 17.28c-.76.76-.22 2.05.85 2.05h16.3c1.07 0 1.61-1.29.85-2.05l-1.34-1.34c-.42-.42-.66-1-.66-1.6V10c0-3.87-3.13-7-7-7z"/>
    <path d="M12 22.2c1.36 0 2.48-1 2.68-2.3H9.32c.2 1.3 1.32 2.3 2.68 2.3z"/>
  </g>

  <!-- Badge: check de atividade concluída. -->
  <circle cx="365" cy="164" r="52" fill="#f59e0b"/>
  <path d="M347 164l12 12 22-24" fill="none" stroke="#ffffff" stroke-width="9" stroke-linecap="round" stroke-linejoin="round"/>
</svg>
